<?xml version="1.0" encoding="UTF-8" standalone="no"?>
<!DOCTYPE svg PUBLIC "-//W3C//DTD SVG 1.1//EN"
 "http://www.w3.org/Graphics/SVG/1.1/DTD/svg11.dtd">
<!-- Generated by graphviz version 2.42.4 (0)
 -->
<!-- Pages: 1 -->
<svg width="773pt" height="479pt"
 viewBox="0.00 0.00 772.54 479.00" xmlns="http://www.w3.org/2000/svg" xmlns:xlink="http://www.w3.org/1999/xlink">
<g id="graph0" class="graph" transform="scale(1 1) rotate(0) translate(4 475)">
<polygon fill="white" stroke="transparent" points="-4,4 -4,-475 768.54,-475 768.54,4 -4,4"/>
<!-- 0 -->
<g id="node1" class="node">
<title>0</title>
<ellipse fill="none" stroke="black" cx="53.95" cy="-453" rx="53.89" ry="18"/>
<text text-anchor="middle" x="53.95" y="-449.3" font-family="Times,serif" font-size="14.00">Input(\a[0] )</text>
</g>
<!-- 9 -->
<g id="node10" class="node">
<title>9</title>
<ellipse fill="none" stroke="black" cx="180.95" cy="-366" rx="43.59" ry="18"/>
<text text-anchor="middle" x="180.95" y="-362.3" font-family="Times,serif" font-size="14.00">FA(fa_0)</text>
</g>
<!-- 0&#45;&gt;9 -->
<g id="edge2" class="edge">
<title>0&#45;&gt;9</title>
<path fill="none" stroke="black" d="M76.94,-436.61C97.52,-422.84 127.82,-402.56 150.42,-387.43"/>
<polygon fill="black" stroke="black" points="152.6,-390.18 158.97,-381.71 148.71,-384.36 152.6,-390.18"/>
<text text-anchor="middle" x="140.95" y="-405.8" font-family="Times,serif" font-size="14.00">\a[0] </text>
</g>
<!-- 1 -->
<g id="node2" class="node">
<title>1</title>
<ellipse fill="none" stroke="black" cx="314.95" cy="-366" rx="53.89" ry="18"/>
<text text-anchor="middle" x="314.95" y="-362.3" font-family="Times,serif" font-size="14.00">Input(\a[1] )</text>
</g>
<!-- 10 -->
<g id="node11" class="node">
<title>10</title>
<ellipse fill="none" stroke="black" cx="314.95" cy="-279" rx="43.59" ry="18"/>
<text text-anchor="middle" x="314.95" y="-275.3" font-family="Times,serif" font-size="14.00">FA(fa_1)</text>
</g>
<!-- 1&#45;&gt;10 -->
<g id="edge5" class="edge">
<title>1&#45;&gt;10</title>
<path fill="none" stroke="black" d="M314.95,-347.8C314.95,-336.16 314.95,-320.55 314.95,-307.24"/>
<polygon fill="black" stroke="black" points="318.45,-307.18 314.95,-297.18 311.45,-307.18 318.45,-307.18"/>
<text text-anchor="middle" x="329.95" y="-318.8" font-family="Times,serif" font-size="14.00">\a[1] </text>
</g>
<!-- 2 -->
<g id="node3" class="node">
<title>2</title>
<ellipse fill="none" stroke="black" cx="448.95" cy="-279" rx="53.89" ry="18"/>
<text text-anchor="middle" x="448.95" y="-275.3" font-family="Times,serif" font-size="14.00">Input(\a[2] )</text>
</g>
<!-- 11 -->
<g id="node12" class="node">
<title>11</title>
<ellipse fill="none" stroke="black" cx="448.95" cy="-192" rx="43.59" ry="18"/>
<text text-anchor="middle" x="448.95" y="-188.3" font-family="Times,serif" font-size="14.00">FA(fa_2)</text>
</g>
<!-- 2&#45;&gt;11 -->
<g id="edge8" class="edge">
<title>2&#45;&gt;11</title>
<path fill="none" stroke="black" d="M448.95,-260.8C448.95,-249.16 448.95,-233.55 448.95,-220.24"/>
<polygon fill="black" stroke="black" points="452.45,-220.18 448.95,-210.18 445.45,-220.18 452.45,-220.18"/>
<text text-anchor="middle" x="463.95" y="-231.8" font-family="Times,serif" font-size="14.00">\a[2] </text>
</g>
<!-- 3 -->
<g id="node4" class="node">
<title>3</title>
<ellipse fill="none" stroke="black" cx="582.95" cy="-192" rx="53.89" ry="18"/>
<text text-anchor="middle" x="582.95" y="-188.3" font-family="Times,serif" font-size="14.00">Input(\a[3] )</text>
</g>
<!-- 12 -->
<g id="node13" class="node">
<title>12</title>
<ellipse fill="none" stroke="black" cx="582.95" cy="-105" rx="43.59" ry="18"/>
<text text-anchor="middle" x="582.95" y="-101.3" font-family="Times,serif" font-size="14.00">FA(fa_3)</text>
</g>
<!-- 3&#45;&gt;12 -->
<g id="edge11" class="edge">
<title>3&#45;&gt;12</title>
<path fill="none" stroke="black" d="M582.95,-173.8C582.95,-162.16 582.95,-146.55 582.95,-133.24"/>
<polygon fill="black" stroke="black" points="586.45,-133.18 582.95,-123.18 579.45,-133.18 586.45,-133.18"/>
<text text-anchor="middle" x="597.95" y="-144.8" font-family="Times,serif" font-size="14.00">\a[3] </text>
</g>
<!-- 4 -->
<g id="node5" class="node">
<title>4</title>
<ellipse fill="none" stroke="black" cx="180.95" cy="-453" rx="54.69" ry="18"/>
<text text-anchor="middle" x="180.95" y="-449.3" font-family="Times,serif" font-size="14.00">Input(\b[0] )</text>
</g>
<!-- 4&#45;&gt;9 -->
<g id="edge3" class="edge">
<title>4&#45;&gt;9</title>
<path fill="none" stroke="black" d="M180.95,-434.8C180.95,-423.16 180.95,-407.55 180.95,-394.24"/>
<polygon fill="black" stroke="black" points="184.45,-394.18 180.95,-384.18 177.45,-394.18 184.45,-394.18"/>
<text text-anchor="middle" x="196.45" y="-405.8" font-family="Times,serif" font-size="14.00">\b[0] </text>
</g>
<!-- 5 -->
<g id="node6" class="node">
<title>5</title>
<ellipse fill="none" stroke="black" cx="441.95" cy="-366" rx="54.69" ry="18"/>
<text text-anchor="middle" x="441.95" y="-362.3" font-family="Times,serif" font-size="14.00">Input(\b[1] )</text>
</g>
<!-- 5&#45;&gt;10 -->
<g id="edge6" class="edge">
<title>5&#45;&gt;10</title>
<path fill="none" stroke="black" d="M418.95,-349.61C398.37,-335.84 368.07,-315.56 345.47,-300.43"/>
<polygon fill="black" stroke="black" points="347.18,-297.36 336.92,-294.71 343.29,-303.18 347.18,-297.36"/>
<text text-anchor="middle" x="401.45" y="-318.8" font-family="Times,serif" font-size="14.00">\b[1] </text>
</g>
<!-- 6 -->
<g id="node7" class="node">
<title>6</title>
<ellipse fill="none" stroke="black" cx="575.95" cy="-279" rx="54.69" ry="18"/>
<text text-anchor="middle" x="575.95" y="-275.3" font-family="Times,serif" font-size="14.00">Input(\b[2] )</text>
</g>
<!-- 6&#45;&gt;11 -->
<g id="edge9" class="edge">
<title>6&#45;&gt;11</title>
<path fill="none" stroke="black" d="M552.95,-262.61C532.37,-248.84 502.07,-228.56 479.47,-213.43"/>
<polygon fill="black" stroke="black" points="481.18,-210.36 470.92,-207.71 477.29,-216.18 481.18,-210.36"/>
<text text-anchor="middle" x="535.45" y="-231.8" font-family="Times,serif" font-size="14.00">\b[2] </text>
</g>
<!-- 7 -->
<g id="node8" class="node">
<title>7</title>
<ellipse fill="none" stroke="black" cx="709.95" cy="-192" rx="54.69" ry="18"/>
<text text-anchor="middle" x="709.95" y="-188.3" font-family="Times,serif" font-size="14.00">Input(\b[3] )</text>
</g>
<!-- 7&#45;&gt;12 -->
<g id="edge12" class="edge">
<title>7&#45;&gt;12</title>
<path fill="none" stroke="black" d="M686.95,-175.61C666.37,-161.84 636.07,-141.56 613.47,-126.43"/>
<polygon fill="black" stroke="black" points="615.18,-123.36 604.92,-120.71 611.29,-129.18 615.18,-123.36"/>
<text text-anchor="middle" x="669.45" y="-144.8" font-family="Times,serif" font-size="14.00">\b[3] </text>
</g>
<!-- 8 -->
<g id="node9" class="node">
<title>8</title>
<ellipse fill="none" stroke="black" cx="299.95" cy="-453" rx="46.29" ry="18"/>
<text text-anchor="middle" x="299.95" y="-449.3" font-family="Times,serif" font-size="14.00">Input(cin)</text>
</g>
<!-- 8&#45;&gt;9 -->
<g id="edge1" class="edge">
<title>8&#45;&gt;9</title>
<path fill="none" stroke="black" d="M278.67,-436.8C259.63,-423.21 231.54,-403.14 210.36,-388.01"/>
<polygon fill="black" stroke="black" points="212.21,-385.03 202.04,-382.06 208.14,-390.73 212.21,-385.03"/>
<text text-anchor="middle" x="255.45" y="-405.8" font-family="Times,serif" font-size="14.00">cin</text>
</g>
<!-- 9&#45;&gt;10 -->
<g id="edge4" class="edge">
<title>9&#45;&gt;10</title>
<path fill="none" stroke="black" d="M198.05,-349.44C210.08,-338.96 226.83,-325.23 242.95,-315 253.49,-308.31 265.5,-302 276.65,-296.64"/>
<polygon fill="black" stroke="black" points="278.19,-299.78 285.76,-292.36 275.22,-293.44 278.19,-299.78"/>
<text text-anchor="middle" x="276.95" y="-318.8" font-family="Times,serif" font-size="14.00">fa_0_COUT</text>
</g>
<!-- 16 -->
<g id="node17" class="node">
<title>16</title>
<ellipse fill="none" stroke="black" cx="161.95" cy="-279" rx="65.79" ry="18"/>
<text text-anchor="middle" x="161.95" y="-275.3" font-family="Times,serif" font-size="14.00">Output(fa_0_S)</text>
</g>
<!-- 9&#45;&gt;16 -->
<g id="edge16" class="edge">
<title>9&#45;&gt;16</title>
<path fill="none" stroke="black" d="M170.33,-348.17C167.36,-342.6 164.52,-336.23 162.95,-330 161.14,-322.87 160.43,-314.99 160.27,-307.64"/>
<polygon fill="black" stroke="black" points="163.77,-307.42 160.38,-297.38 156.77,-307.34 163.77,-307.42"/>
<text text-anchor="middle" x="182.45" y="-318.8" font-family="Times,serif" font-size="14.00">fa_0_S</text>
</g>
<!-- 10&#45;&gt;11 -->
<g id="edge7" class="edge">
<title>10&#45;&gt;11</title>
<path fill="none" stroke="black" d="M332.05,-262.44C344.08,-251.96 360.83,-238.23 376.95,-228 387.49,-221.31 399.5,-215 410.65,-209.64"/>
<polygon fill="black" stroke="black" points="412.19,-212.78 419.76,-205.36 409.22,-206.44 412.19,-212.78"/>
<text text-anchor="middle" x="410.95" y="-231.8" font-family="Times,serif" font-size="14.00">fa_1_COUT</text>
</g>
<!-- 14 -->
<g id="node15" class="node">
<title>14</title>
<ellipse fill="none" stroke="black" cx="295.95" cy="-192" rx="65.79" ry="18"/>
<text text-anchor="middle" x="295.95" y="-188.3" font-family="Times,serif" font-size="14.00">Output(fa_1_S)</text>
</g>
<!-- 10&#45;&gt;14 -->
<g id="edge14" class="edge">
<title>10&#45;&gt;14</title>
<path fill="none" stroke="black" d="M304.33,-261.17C301.36,-255.6 298.52,-249.23 296.95,-243 295.14,-235.87 294.43,-227.99 294.27,-220.64"/>
<polygon fill="black" stroke="black" points="297.77,-220.42 294.38,-210.38 290.77,-220.34 297.77,-220.42"/>
<text text-anchor="middle" x="316.45" y="-231.8" font-family="Times,serif" font-size="14.00">fa_1_S</text>
</g>
<!-- 11&#45;&gt;12 -->
<g id="edge10" class="edge">
<title>11&#45;&gt;12</title>
<path fill="none" stroke="black" d="M466.05,-175.44C478.08,-164.96 494.83,-151.23 510.95,-141 521.49,-134.31 533.5,-128 544.65,-122.64"/>
<polygon fill="black" stroke="black" points="546.19,-125.78 553.76,-118.36 543.22,-119.44 546.19,-125.78"/>
<text text-anchor="middle" x="544.95" y="-144.8" font-family="Times,serif" font-size="14.00">fa_2_COUT</text>
</g>
<!-- 15 -->
<g id="node16" class="node">
<title>15</title>
<ellipse fill="none" stroke="black" cx="429.95" cy="-105" rx="65.79" ry="18"/>
<text text-anchor="middle" x="429.95" y="-101.3" font-family="Times,serif" font-size="14.00">Output(fa_2_S)</text>
</g>
<!-- 11&#45;&gt;15 -->
<g id="edge15" class="edge">
<title>11&#45;&gt;15</title>
<path fill="none" stroke="black" d="M438.33,-174.17C435.36,-168.6 432.52,-162.23 430.95,-156 429.14,-148.87 428.43,-140.99 428.27,-133.64"/>
<polygon fill="black" stroke="black" points="431.77,-133.42 428.38,-123.38 424.77,-133.34 431.77,-133.42"/>
<text text-anchor="middle" x="450.45" y="-144.8" font-family="Times,serif" font-size="14.00">fa_2_S</text>
</g>
<!-- 13 -->
<g id="node14" class="node">
<title>13</title>
<ellipse fill="none" stroke="black" cx="512.95" cy="-18" rx="55.79" ry="18"/>
<text text-anchor="middle" x="512.95" y="-14.3" font-family="Times,serif" font-size="14.00">Output(cout)</text>
</g>
<!-- 12&#45;&gt;13 -->
<g id="edge13" class="edge">
<title>12&#45;&gt;13</title>
<path fill="none" stroke="black" d="M569.45,-87.61C559.15,-75.11 544.8,-57.69 533.14,-43.53"/>
<polygon fill="black" stroke="black" points="535.7,-41.12 526.64,-35.63 530.29,-45.57 535.7,-41.12"/>
<text text-anchor="middle" x="563.95" y="-57.8" font-family="Times,serif" font-size="14.00">cout</text>
</g>
<!-- 17 -->
<g id="node18" class="node">
<title>17</title>
<ellipse fill="none" stroke="black" cx="652.95" cy="-18" rx="65.79" ry="18"/>
<text text-anchor="middle" x="652.95" y="-14.3" font-family="Times,serif" font-size="14.00">Output(fa_3_S)</text>
</g>
<!-- 12&#45;&gt;17 -->
<g id="edge17" class="edge">
<title>12&#45;&gt;17</title>
<path fill="none" stroke="black" d="M596.44,-87.61C606.74,-75.11 621.09,-57.69 632.75,-43.53"/>
<polygon fill="black" stroke="black" points="635.6,-45.57 639.25,-35.63 630.19,-41.12 635.6,-45.57"/>
<text text-anchor="middle" x="641.45" y="-57.8" font-family="Times,serif" font-size="14.00">fa_3_S</text>
</g>
</g>
</svg>
